<svg width="263" height="52" viewBox="0 0 263 52" fill="none" xmlns="http://www.w3.org/2000/svg">
<g clip-path="url(#clip0_814_245)">
<path d="M66.6359 51.4042C66.0841 51.4042 65.6035 51.2206 65.1942 50.8539C64.7848 50.4872 64.5795 49.9369 64.5795 49.2029C64.5795 48.6194 64.7136 47.9859 64.9805 47.3018C65.2474 46.6184 65.6157 45.9427 66.0841 45.2759C66.5519 44.6091 67.087 44.0044 67.6895 43.4624C68.2914 42.9211 68.9349 42.4834 69.6208 42.1493C70.3061 41.8159 70.9914 41.6489 71.6773 41.6489C72.3632 41.6489 73.0068 41.8326 73.5079 42.1992C74.0097 42.5659 74.2606 43.0497 74.2606 43.6499C74.2606 44.1004 74.1014 44.4255 73.7838 44.6257C73.4662 44.826 73.0896 44.8843 72.6552 44.8011C72.6885 44.6507 72.718 44.501 72.7431 44.3506C72.7681 44.2009 72.7809 44.0422 72.7809 43.8751C72.7809 43.5418 72.7142 43.2416 72.5801 42.9748C72.446 42.7086 72.1617 42.5749 71.7273 42.5749C71.2589 42.5749 70.7829 42.7336 70.2978 43.0503C69.8127 43.3671 69.3488 43.7798 68.9061 44.2885C68.4627 44.7972 68.0661 45.3559 67.7145 45.9644C67.3635 46.573 67.0876 47.1693 66.8868 47.7529C66.686 48.3365 66.5859 48.8619 66.5859 49.3284C66.5859 49.862 66.7777 50.1289 67.1627 50.1289C67.5477 50.1289 67.9737 49.9414 68.4415 49.5658C68.9093 49.1908 69.3821 48.7198 69.8589 48.1529C70.3356 47.5859 70.7906 47.0068 71.2256 46.4143C71.66 45.8224 72.0366 45.3181 72.3542 44.9009C72.4043 44.8177 72.471 44.7755 72.5551 44.7755C72.6218 44.7921 72.7514 44.8299 72.9439 44.8881C73.1358 44.947 73.3161 45.034 73.4829 45.1505C73.6497 45.2676 73.7338 45.4173 73.7338 45.6009C73.7338 45.768 73.6625 45.9804 73.5207 46.2389C73.3783 46.4975 73.2115 46.7809 73.019 47.0894C72.8265 47.3978 72.659 47.7062 72.5172 48.0147C72.3748 48.3231 72.3042 48.6194 72.3042 48.9028C72.3042 49.1198 72.3626 49.3239 72.48 49.5159C72.5968 49.7078 72.7893 49.8032 73.0568 49.8032C73.4579 49.8032 74.0225 49.5075 74.7495 48.915C75.4765 48.3231 76.2169 47.3184 76.9689 45.9011L77.4457 46.3765C77.0446 47.2768 76.5634 48.0735 76.0032 48.7653C75.4431 49.4576 74.8534 49.9996 74.2355 50.3912C73.617 50.7829 72.9895 50.9787 72.3542 50.9787C71.6683 50.9787 71.1589 50.7617 70.8246 50.3285C70.4903 49.8953 70.3061 49.4282 70.2727 48.9278V48.803C69.6035 49.6035 68.9895 50.237 68.4293 50.7041C67.8692 51.1706 67.2711 51.4042 66.6359 51.4042Z" fill="#FBCA00"/>
<path d="M84.8188 50.729C84.1669 50.729 83.669 50.5665 83.3263 50.2414C82.9837 49.9164 82.8124 49.5036 82.8124 49.0032C82.8124 48.6699 82.8708 48.3154 82.9882 47.9404C83.105 47.5654 83.2224 47.1859 83.3392 46.8026C83.456 46.4193 83.515 46.052 83.515 45.702C83.515 45.352 83.4271 45.0807 83.2519 44.9392C83.0761 44.7978 82.8714 44.7268 82.6372 44.7268C82.1355 44.7268 81.6215 44.9316 81.0947 45.3398C80.5679 45.7487 80.0578 46.2613 79.565 46.8781C79.0716 47.495 78.6077 48.1375 78.1733 48.8042C77.7383 49.471 77.3623 50.0719 77.0447 50.6049C76.7271 50.6049 76.4261 50.5505 76.1419 50.4424C75.8576 50.3336 75.6151 50.1467 75.4149 49.8793C75.4316 49.7961 75.5278 49.5414 75.703 49.1165C75.8788 48.6916 76.0752 48.1829 76.2927 47.591C76.5096 46.9991 76.702 46.3777 76.8695 45.7276C77.0363 45.0775 77.1204 44.4856 77.1204 43.9519C77.2372 43.8188 77.4168 43.685 77.6594 43.5519C77.9013 43.4188 78.1566 43.3517 78.4242 43.3517C79.0094 43.3517 79.302 43.6019 79.302 44.1023C79.302 44.3025 79.2641 44.5988 79.189 44.9904C79.114 45.3827 79.0094 45.8281 78.8753 46.3285C79.3097 45.7449 79.7864 45.1946 80.3049 44.6775C80.8227 44.1611 81.3623 43.7394 81.9224 43.4144C82.4826 43.0893 83.0466 42.9268 83.6151 42.9268C84.3337 42.9268 84.865 43.1686 85.2076 43.6518C85.5503 44.1355 85.7216 44.6692 85.7216 45.2528C85.7216 45.7532 85.6375 46.2197 85.4707 46.6535C85.3032 47.0874 85.1403 47.4956 84.9818 47.8789C84.8227 48.2629 84.7437 48.6379 84.7437 49.0045C84.7437 49.2714 84.8066 49.4588 84.9317 49.5676C85.0569 49.6764 85.1948 49.7302 85.3456 49.7302C85.7466 49.7302 86.1643 49.5388 86.5994 49.1549C87.0338 48.7716 87.4476 48.284 87.8409 47.6914C88.2336 47.0995 88.5808 46.5032 88.8817 45.9029L89.3077 46.253C88.9568 47.0701 88.5596 47.8162 88.1162 48.4913C87.6728 49.1664 87.1794 49.7084 86.6366 50.1173C86.0931 50.5256 85.4868 50.7303 84.8182 50.7303L84.8188 50.729Z" fill="#FBCA00"/>
<path d="M89.8845 51.0292C89.1318 51.0292 88.6179 50.7828 88.342 50.2914C88.0661 49.7999 87.9281 49.2618 87.9281 48.6782C87.9281 48.1445 88.0121 47.5987 88.179 47.04C88.3458 46.4814 88.5762 45.9605 88.8687 45.4768C89.1613 44.993 89.4873 44.6059 89.8466 44.3134C90.2059 44.0216 90.5697 43.8757 90.9374 43.8757C91.0542 43.8757 91.1921 43.8969 91.3513 43.9385C91.5097 43.98 91.6227 44.0428 91.69 44.1259C91.4892 44.3761 91.2845 44.6846 91.0753 45.0512C90.8662 45.4179 90.6743 45.8057 90.4985 46.2146C90.3227 46.6235 90.1848 47.0362 90.0847 47.4528C89.9846 47.87 89.9345 48.2533 89.9345 48.6033C89.9345 48.9533 89.9974 49.2119 90.1225 49.4288C90.2476 49.6457 90.469 49.7539 90.7872 49.7539C91.1055 49.7539 91.4854 49.5747 91.9281 49.2163C92.3708 48.858 92.7937 48.4453 93.1947 47.9781C92.6596 47.4944 92.2752 46.9652 92.041 46.3899C91.8068 45.8146 91.69 45.1184 91.69 44.3013C91.69 43.9513 91.7779 43.5507 91.9531 43.1008C92.1289 42.6503 92.4125 42.2587 92.8059 41.9253C93.1985 41.5919 93.7292 41.4249 94.3984 41.4249C95.117 41.4249 95.6233 41.6252 95.9159 42.0252C96.2085 42.4251 96.3548 42.9005 96.3548 43.4509C96.3548 44.0677 96.1918 44.7601 95.8658 45.5267C95.5399 46.2939 95.151 47.0189 94.6993 47.703C94.9002 47.8028 95.1337 47.8527 95.4013 47.8527C95.6522 47.8527 95.9531 47.7945 96.3041 47.6774C96.6551 47.5609 96.9977 47.3645 97.3326 47.09C97.6669 46.8148 97.9345 46.4437 98.1353 45.9772L98.587 46.3022C98.2187 47.1527 97.7298 47.774 97.1196 48.1656C96.5088 48.5579 95.9114 48.7531 95.3262 48.7531C95.1087 48.7531 94.8912 48.7326 94.6743 48.6904C94.4568 48.6488 94.256 48.5944 94.0724 48.5278C93.504 49.1952 92.852 49.7782 92.1161 50.2786C91.3801 50.779 90.6365 51.0292 89.8838 51.0292H89.8845ZM93.8472 47.177C94.2483 46.5934 94.5909 45.9682 94.8758 45.3014C95.16 44.6347 95.3018 44.0178 95.3018 43.4502C95.3018 43.0669 95.2428 42.7873 95.126 42.6126C95.0086 42.4373 94.8334 42.3496 94.5992 42.3496C94.2816 42.3496 93.955 42.5748 93.6207 43.0247C93.2864 43.4752 93.119 44.0421 93.119 44.7255C93.119 45.0756 93.1819 45.5011 93.307 46.0008C93.4321 46.5013 93.6118 46.8929 93.846 47.1763L93.8472 47.177Z" fill="#FBCA00"/>
<path d="M100.493 51.5046C99.6573 51.5046 98.9842 51.3331 98.4741 50.9921C97.964 50.6503 97.6002 50.2165 97.3833 49.6918C97.1665 49.1664 97.0574 48.6289 97.0574 48.0786C97.0574 47.5955 97.1241 47.2198 97.2582 46.953C97.3923 46.6868 97.5591 46.4904 97.76 46.3656C97.9608 46.2402 98.1488 46.1448 98.324 46.0776C98.4998 46.0111 98.6288 45.9362 98.7128 45.8524C99.1305 45.4192 99.5611 44.9143 100.004 44.339C100.447 43.7637 100.828 43.1258 101.145 42.4257V42.1755C101.145 41.5087 101.258 41.0378 101.484 40.762C101.71 40.4868 101.973 40.3492 102.274 40.3492C102.475 40.3492 102.62 40.3992 102.713 40.4996C102.805 40.5994 102.859 40.7165 102.876 40.8496C102.876 40.9495 102.855 41.0666 102.813 41.1997C102.771 41.3334 102.75 41.5164 102.75 41.75C102.75 42.2504 102.871 42.8218 103.114 43.463C103.356 44.1055 103.599 44.785 103.841 45.5017C104.083 46.219 104.205 46.9524 104.205 47.703C104.205 47.9033 104.196 48.0869 104.18 48.2533C104.163 48.4203 104.138 48.5783 104.105 48.7287L104.048 48.8874L103.93 49.24C103.851 49.4751 103.773 49.6709 103.695 49.8274C103.642 49.9324 103.637 49.9618 103.576 50.0623C103.223 50.6497 103.172 50.6715 102.561 51.0055C101.951 51.3389 101.261 51.5059 100.492 51.5059L100.493 51.5046ZM100.318 50.404C100.652 50.404 100.961 50.3202 101.245 50.1538C101.53 49.9874 101.755 49.7455 101.922 49.4281C101.236 49.2784 100.618 49.0116 100.066 48.6276C99.5142 48.2443 99.0882 47.8521 98.7872 47.4521C98.553 47.502 98.4363 47.7273 98.4363 48.1279C98.4363 48.6782 98.5947 49.1952 98.913 49.6783C99.2306 50.1621 99.699 50.4033 100.318 50.4033V50.404ZM102.123 48.6782C102.157 48.5617 102.177 48.4241 102.186 48.2654C102.194 48.1074 102.199 47.9864 102.199 47.9026C102.182 47.152 102.081 46.4104 101.898 45.6764C101.714 44.9431 101.53 44.1925 101.346 43.4252C101.045 43.9423 100.694 44.5009 100.293 45.1011C99.8915 45.7014 99.5149 46.1851 99.1639 46.5518C99.4308 47.0023 99.8241 47.4272 100.343 47.8271C100.86 48.227 101.455 48.5112 102.123 48.6775V48.6782Z" fill="#FBCA00"/>
<path d="M133.92 6.15237H142.679V26.2196C142.679 26.2196 142.409 31.6191 138.006 34.5031C132.864 37.8722 129.478 37.0915 129.478 37.0915V29.4742C129.478 29.4742 131.504 29.343 132.517 28.5124C133.709 27.5365 133.927 26.7405 133.927 25.9976C133.927 25.1779 133.92 6.15173 133.92 6.15173L133.92 6.15237Z" fill="#004388"/>
<path d="M144.68 37.0179V6.15234H162.032V13.499H153.061V17.5675H160.995V24.8944H152.914V29.6219H161.663V36.9437L144.68 37.0179Z" fill="#004388"/>
<path d="M185.764 6.10376H193.772V36.9437H185.764V6.10376Z" fill="#004388"/>
<path fill-rule="evenodd" clip-rule="evenodd" d="M86.9843 6.00134C95.8466 6.00134 103.03 13.1669 103.03 22.0046C103.03 30.8422 95.8466 38.0066 86.9843 38.0066C78.1219 38.0066 70.9381 30.8422 70.9381 22.0046C70.9381 13.1669 78.1219 6.00134 86.9843 6.00134ZM87.1331 13.7857C91.7664 13.7857 95.5232 17.5311 95.5232 22.1524C95.5232 26.7738 91.7671 30.5191 87.1331 30.5191C82.4992 30.5191 78.743 26.7725 78.743 22.1524C78.743 17.5323 82.4992 13.7857 87.1331 13.7857Z" fill="#004388"/>
<path fill-rule="evenodd" clip-rule="evenodd" d="M239.751 6.00134C248.612 6.00134 255.797 13.1669 255.797 22.0046C255.797 30.8422 248.612 38.0066 239.751 38.0066C230.89 38.0066 223.705 30.8422 223.705 22.0046C223.705 13.1669 230.889 6.00134 239.751 6.00134ZM239.899 13.7857C244.533 13.7857 248.287 17.5311 248.287 22.1524C248.287 26.7738 244.533 30.5191 239.899 30.5191C235.265 30.5191 231.508 26.7725 231.508 22.1524C231.508 17.5323 235.264 13.7857 239.899 13.7857Z" fill="#004388"/>
<path d="M208.161 36.9437L195.405 6.10376H204.229L211.199 22.8909L218.21 6.10376H227.033L214.279 36.9437H208.161Z" fill="#004388"/>
<path fill-rule="evenodd" clip-rule="evenodd" d="M113.607 13.0549V17.7882H116.574C116.574 17.7882 118.798 17.5668 118.798 15.4968C118.798 13.1682 116.796 13.0549 116.796 13.0549H113.607ZM113.607 25.1842V29.9175H117.537C117.537 29.9175 119.984 29.7697 119.984 27.6984C119.984 25.3711 118.353 25.1836 118.353 25.1836H113.607V25.1842ZM105.746 6.15295V36.9443H118.575C118.575 36.9443 127.994 35.699 127.994 28.5872C127.994 23.1148 122.061 20.7478 122.061 20.7478C122.061 20.7478 126.139 19.0521 126.139 14.6092C126.139 6.84405 117.166 6.15295 117.166 6.15295H105.746Z" fill="#004388"/>
<path d="M163.739 6.15234V13.4805H170.041V36.9437H178.044V13.4805H184.349V6.15234H163.739Z" fill="#004388"/>
<path d="M44.8381 6.61692C46.2016 6.24002 47.6389 6.03845 49.123 6.03845C57.9488 6.03845 65.1037 13.1733 65.1037 21.9764C65.1037 30.7795 57.9488 37.9144 49.123 37.9144C47.6453 37.9144 46.2145 37.7141 44.8561 37.3398L60.2112 22.1172L44.8381 6.61692Z" fill="#004388"/>
<path fill-rule="evenodd" clip-rule="evenodd" d="M42.1304 13.7576C46.6815 13.7576 50.3716 17.437 50.3716 21.9765C50.3716 26.5159 46.6822 30.194 42.1304 30.194C37.5786 30.194 33.8904 26.5146 33.8904 21.9765C33.8904 17.4383 37.5799 13.7576 42.1304 13.7576ZM40.5622 8.51489L53.7133 22.0462L40.3569 35.3049C36.0104 32.4567 33.141 27.55 33.141 21.9758C33.141 16.4017 36.0418 11.3305 40.5616 8.51489H40.5622Z" fill="#004388"/>
<path d="M20.79 16.618C25.9482 16.618 30.0483 20.6628 30.0483 26.5543C30.0483 33.2816 25.4631 37.9861 17.9681 37.9861C10.4731 37.9861 6.02075 33.3257 6.02075 26.5985C6.02075 21.7621 8.53342 17.7608 11.664 12.8368L16.0727 6.02185H24.8459L17.483 17.1017C18.5854 16.7939 19.6871 16.618 20.7894 16.618H20.79ZM13.1192 26.9504C13.1192 29.94 14.971 31.7426 17.8808 31.7426C20.7907 31.7426 22.6425 29.94 22.6425 26.9504C22.6425 23.9608 20.7907 22.114 17.8808 22.114C14.971 22.114 13.1192 23.9608 13.1192 26.9504Z" fill="#004388"/>
<path d="M49.5041 3.23572C39.0627 3.23572 30.5981 11.6766 30.5981 22.0904C30.5981 32.5041 39.0633 40.9456 49.5041 40.9456C59.9449 40.9456 68.4101 32.5041 68.4101 22.0904C68.4101 11.6766 59.9462 3.23572 49.5041 3.23572ZM49.5041 40.028C39.5702 40.028 31.5176 31.9973 31.5176 22.0904C31.5176 12.1834 39.5702 4.15269 49.5041 4.15269C59.438 4.15269 67.4906 12.1834 67.4906 22.0904C67.4906 31.9973 59.438 40.028 49.5041 40.028Z" fill="url(#paint0_linear_814_245)"/>
<path d="M18.1907 40.3083C16.0226 40.3083 13.1782 39.8636 10.3627 38.1192C7.88663 36.5847 5.98159 34.4334 4.85487 31.8981C3.0679 27.877 3.86097 23.8079 4.49234 21.7403C5.94694 16.9814 7.0634 15.0508 15.3528 2.95801L16.0945 3.46353C7.87508 15.4546 6.77017 17.3609 5.35214 22.0021C4.7567 23.9506 4.00726 27.7797 5.67617 31.5353C6.72975 33.9055 8.51415 35.9192 10.8369 37.3584C14.6226 39.7042 18.4711 39.5462 20.4288 39.2429L20.4416 39.241C22.2889 39.0087 25.7717 38.1723 28.3402 35.1814C29.9225 33.3398 30.4981 31.4175 30.7149 30.6938C31.7242 27.3235 31.0903 24.4138 30.7708 23.319C30.4217 22.1243 29.4952 18.9497 26.4082 16.8899C24.509 15.6229 22.6636 15.3535 21.9585 15.2966C19.1776 15.0713 17.03 16.1982 15.997 16.8893L15.4965 16.1457C16.6264 15.3893 18.9787 14.1582 22.0303 14.4039C22.8054 14.4666 24.833 14.761 26.9074 16.1451C30.2664 18.386 31.2591 21.7877 31.6331 23.0681C31.9751 24.2391 32.654 27.351 31.576 30.9498C31.3444 31.7234 30.7291 33.7775 29.0229 35.7637C26.2607 38.9792 22.5385 39.8783 20.561 40.1285C19.9341 40.2251 19.1256 40.3077 18.192 40.3077L18.1907 40.3083Z" fill="url(#paint1_linear_814_245)"/>
</g>
<defs>
<linearGradient id="paint0_linear_814_245" x1="30.5981" y1="22.0904" x2="68.4101" y2="22.0904" gradientUnits="userSpaceOnUse">
<stop stop-color="#FBCA00"/>
<stop offset="0.25" stop-color="#FFF9D1"/>
<stop offset="0.3" stop-color="#F9EFBF"/>
<stop offset="0.39" stop-color="#ECD792"/>
<stop offset="0.52" stop-color="#D6AF4B"/>
<stop offset="0.6" stop-color="#C8951A"/>
<stop offset="0.82" stop-color="#E8CD75"/>
<stop offset="0.87" stop-color="#F1DC8D"/>
<stop offset="1" stop-color="#FFF9D1"/>
</linearGradient>
<linearGradient id="paint1_linear_814_245" x1="3.75959" y1="21.6335" x2="32.1593" y2="21.6335" gradientUnits="userSpaceOnUse">
<stop stop-color="#FBCA00"/>
<stop offset="0.25" stop-color="#FFF9D1"/>
<stop offset="0.3" stop-color="#F9EFBF"/>
<stop offset="0.39" stop-color="#ECD792"/>
<stop offset="0.52" stop-color="#D6AF4B"/>
<stop offset="0.6" stop-color="#C8951A"/>
<stop offset="0.82" stop-color="#E8CD75"/>
<stop offset="0.87" stop-color="#F1DC8D"/>
<stop offset="1" stop-color="#FFF9D1"/>
</linearGradient>
<clipPath id="clip0_814_245">
<rect width="263" height="52" fill="white"/>
</clipPath>
</defs>
</svg>
